#N canvas 870 400 866 491 10;
#X declare -lib mrpeach;
#X obj 72 23 key;
#X floatatom 75 50 5 0 0 0 - - -;
#X obj 67 90 select 97 115 100 102 103 104 106 107 99 118 98 110;
#X msg 43 151 261;
#X msg 64 169 220;
#X msg 82 185 330;
#X msg 123 192 349;
#X msg 147 199 369;
#X msg 186 191 392;
#X msg 218 175 415;
#X msg 256 165 440;
#X msg 299 151 466;
#X msg 339 148 493;
#X msg 382 145 523;
#X msg 408 142 593;
#X msg 314 281 send /x \$1;
#X obj 228 373 import mrpeach;
#X obj 378 352 sendOSC;
#X msg 441 311 disconnect;
#X msg 560 321 connect 192.168.1.72 12000;
#X floatatom 78 264 5 0 0 0 - - -;
#X obj 79 312 osc~;
#X obj 106 371 dac~;
#X connect 0 0 1 0;
#X connect 1 0 2 0;
#X connect 1 0 15 0;
#X connect 2 0 3 0;
#X connect 2 1 4 0;
#X connect 2 2 5 0;
#X connect 2 3 6 0;
#X connect 2 4 7 0;
#X connect 2 5 8 0;
#X connect 2 6 9 0;
#X connect 2 7 10 0;
#X connect 2 8 11 0;
#X connect 2 9 12 0;
#X connect 2 10 13 0;
#X connect 2 11 14 0;
#X connect 3 0 20 0;
#X connect 4 0 20 0;
#X connect 5 0 20 0;
#X connect 6 0 20 0;
#X connect 7 0 20 0;
#X connect 8 0 20 0;
#X connect 9 0 20 0;
#X connect 10 0 20 0;
#X connect 11 0 20 0;
#X connect 12 0 20 0;
#X connect 13 0 20 0;
#X connect 14 0 20 0;
#X connect 15 0 17 0;
#X connect 18 0 17 0;
#X connect 19 0 17 0;
#X connect 20 0 21 0;
#X connect 21 0 22 0;
#X connect 21 0 22 1;
